<svg xmlns="http://www.w3.org/2000/svg" style="display: none;">
    <!-- ClipForge Icon Set - AdHUB Style -->

    <!-- Logo / Clapperboard -->
    <symbol id="icon-logo" viewBox="0 0 24 24" fill="none" stroke="currentColor" stroke-width="2" stroke-linecap="round" stroke-linejoin="round">
        <path d="M4 11v8a2 2 0 0 0 2 2h12a2 2 0 0 0 2-2v-8"/>
        <path d="M4 11V7a2 2 0 0 1 2-2h3l2-2h6l2 2h3a2 2 0 0 1 2 2v4"/>
        <line x1="4" y1="11" x2="20" y2="11"/>
        <line x1="8" y1="5" x2="6" y2="11"/>
        <line x1="14" y1="5" x2="12" y2="11"/>
    </symbol>

    <!-- File / New -->
    <symbol id="icon-file" viewBox="0 0 24 24" fill="none" stroke="currentColor" stroke-width="2" stroke-linecap="round" stroke-linejoin="round">
        <path d="M14 2H6a2 2 0 0 0-2 2v16a2 2 0 0 0 2 2h12a2 2 0 0 0 2-2V8z"/>
        <polyline points="14 2 14 8 20 8"/>
        <line x1="12" y1="18" x2="12" y2="12"/>
        <line x1="9" y1="15" x2="15" y2="15"/>
    </symbol>

    <!-- Folder / Open -->
    <symbol id="icon-folder" viewBox="0 0 24 24" fill="none" stroke="currentColor" stroke-width="2" stroke-linecap="round" stroke-linejoin="round">
        <path d="M22 19a2 2 0 0 1-2 2H4a2 2 0 0 1-2-2V5a2 2 0 0 1 2-2h5l2 3h9a2 2 0 0 1 2 2z"/>
    </symbol>

    <!-- Save -->
    <symbol id="icon-save" viewBox="0 0 24 24" fill="none" stroke="currentColor" stroke-width="2" stroke-linecap="round" stroke-linejoin="round">
        <path d="M19 21H5a2 2 0 0 1-2-2V5a2 2 0 0 1 2-2h11l5 5v11a2 2 0 0 1-2 2z"/>
        <polyline points="17 21 17 13 7 13 7 21"/>
        <polyline points="7 3 7 8 15 8"/>
    </symbol>

    <!-- Export / Upload -->
    <symbol id="icon-export" viewBox="0 0 24 24" fill="none" stroke="currentColor" stroke-width="2" stroke-linecap="round" stroke-linejoin="round">
        <path d="M21 15v4a2 2 0 0 1-2 2H5a2 2 0 0 1-2-2v-4"/>
        <polyline points="17 8 12 3 7 8"/>
        <line x1="12" y1="3" x2="12" y2="15"/>
    </symbol>

    <!-- Video -->
    <symbol id="icon-video" viewBox="0 0 24 24" fill="none" stroke="currentColor" stroke-width="2" stroke-linecap="round" stroke-linejoin="round">
        <rect x="2" y="4" width="20" height="16" rx="2"/>
        <path d="M10 9l5 3-5 3V9z"/>
    </symbol>

    <!-- Text -->
    <symbol id="icon-text" viewBox="0 0 24 24" fill="none" stroke="currentColor" stroke-width="2" stroke-linecap="round" stroke-linejoin="round">
        <polyline points="4 7 4 4 20 4 20 7"/>
        <line x1="9" y1="20" x2="15" y2="20"/>
        <line x1="12" y1="4" x2="12" y2="20"/>
    </symbol>

    <!-- Audio / Music -->
    <symbol id="icon-audio" viewBox="0 0 24 24" fill="none" stroke="currentColor" stroke-width="2" stroke-linecap="round" stroke-linejoin="round">
        <path d="M9 18V5l12-2v13"/>
        <circle cx="6" cy="18" r="3"/>
        <circle cx="18" cy="16" r="3"/>
    </symbol>

    <!-- Filters / Palette -->
    <symbol id="icon-filters" viewBox="0 0 24 24" fill="none" stroke="currentColor" stroke-width="2" stroke-linecap="round" stroke-linejoin="round">
        <circle cx="13.5" cy="6.5" r="0.5" fill="currentColor"/>
        <circle cx="17.5" cy="10.5" r="0.5" fill="currentColor"/>
        <circle cx="8.5" cy="7.5" r="0.5" fill="currentColor"/>
        <circle cx="6.5" cy="12.5" r="0.5" fill="currentColor"/>
        <path d="M12 2C6.5 2 2 6.5 2 12s4.5 10 10 10c.926 0 1.648-.746 1.648-1.688 0-.437-.18-.835-.437-1.125-.29-.289-.438-.652-.438-1.125a1.64 1.64 0 0 1 1.668-1.668h1.996c3.051 0 5.555-2.503 5.555-5.555C21.965 6.012 17.461 2 12 2z"/>
    </symbol>

    <!-- Templates / Layout -->
    <symbol id="icon-templates" viewBox="0 0 24 24" fill="none" stroke="currentColor" stroke-width="2" stroke-linecap="round" stroke-linejoin="round">
        <rect x="3" y="3" width="7" height="7"/>
        <rect x="14" y="3" width="7" height="7"/>
        <rect x="14" y="14" width="7" height="7"/>
        <rect x="3" y="14" width="7" height="7"/>
    </symbol>

    <!-- Upload / Import -->
    <symbol id="icon-upload" viewBox="0 0 24 24" fill="none" stroke="currentColor" stroke-width="2" stroke-linecap="round" stroke-linejoin="round">
        <path d="M21 15v4a2 2 0 0 1-2 2H5a2 2 0 0 1-2-2v-4"/>
        <polyline points="17 8 12 3 7 8"/>
        <line x1="12" y1="3" x2="12" y2="15"/>
    </symbol>

    <!-- Play -->
    <symbol id="icon-play" viewBox="0 0 24 24" fill="none" stroke="currentColor" stroke-width="2" stroke-linecap="round" stroke-linejoin="round">
        <polygon points="5 3 19 12 5 21 5 3" fill="currentColor"/>
    </symbol>

    <!-- Pause -->
    <symbol id="icon-pause" viewBox="0 0 24 24" fill="none" stroke="currentColor" stroke-width="2" stroke-linecap="round" stroke-linejoin="round">
        <rect x="6" y="4" width="4" height="16" fill="currentColor"/>
        <rect x="14" y="4" width="4" height="16" fill="currentColor"/>
    </symbol>

    <!-- Skip Back -->
    <symbol id="icon-skip-back" viewBox="0 0 24 24" fill="none" stroke="currentColor" stroke-width="2" stroke-linecap="round" stroke-linejoin="round">
        <polygon points="19 20 9 12 19 4 19 20"/>
        <line x1="5" y1="19" x2="5" y2="5"/>
    </symbol>

    <!-- Skip Forward -->
    <symbol id="icon-skip-forward" viewBox="0 0 24 24" fill="none" stroke="currentColor" stroke-width="2" stroke-linecap="round" stroke-linejoin="round">
        <polygon points="5 4 15 12 5 20 5 4"/>
        <line x1="19" y1="5" x2="19" y2="19"/>
    </symbol>

    <!-- Fullscreen -->
    <symbol id="icon-fullscreen" viewBox="0 0 24 24" fill="none" stroke="currentColor" stroke-width="2" stroke-linecap="round" stroke-linejoin="round">
        <path d="M8 3H5a2 2 0 0 0-2 2v3"/>
        <path d="M21 8V5a2 2 0 0 0-2-2h-3"/>
        <path d="M3 16v3a2 2 0 0 0 2 2h3"/>
        <path d="M16 21h3a2 2 0 0 0 2-2v-3"/>
    </symbol>

    <!-- Scissors / Split -->
    <symbol id="icon-scissors" viewBox="0 0 24 24" fill="none" stroke="currentColor" stroke-width="2" stroke-linecap="round" stroke-linejoin="round">
        <circle cx="6" cy="6" r="3"/>
        <circle cx="6" cy="18" r="3"/>
        <line x1="20" y1="4" x2="8.12" y2="15.88"/>
        <line x1="14.47" y1="14.48" x2="20" y2="20"/>
        <line x1="8.12" y1="8.12" x2="12" y2="12"/>
    </symbol>

    <!-- Trash / Delete -->
    <symbol id="icon-trash" viewBox="0 0 24 24" fill="none" stroke="currentColor" stroke-width="2" stroke-linecap="round" stroke-linejoin="round">
        <polyline points="3 6 5 6 21 6"/>
        <path d="M19 6v14a2 2 0 0 1-2 2H7a2 2 0 0 1-2-2V6m3 0V4a2 2 0 0 1 2-2h4a2 2 0 0 1 2 2v2"/>
        <line x1="10" y1="11" x2="10" y2="17"/>
        <line x1="14" y1="11" x2="14" y2="17"/>
    </symbol>

    <!-- Undo -->
    <symbol id="icon-undo" viewBox="0 0 24 24" fill="none" stroke="currentColor" stroke-width="2" stroke-linecap="round" stroke-linejoin="round">
        <path d="M3 7v6h6"/>
        <path d="M21 17a9 9 0 0 0-9-9 9 9 0 0 0-6 2.3L3 13"/>
    </symbol>

    <!-- Redo -->
    <symbol id="icon-redo" viewBox="0 0 24 24" fill="none" stroke="currentColor" stroke-width="2" stroke-linecap="round" stroke-linejoin="round">
        <path d="M21 7v6h-6"/>
        <path d="M3 17a9 9 0 0 1 9-9 9 9 0 0 1 6 2.3l3 2.7"/>
    </symbol>

    <!-- Plus / Add -->
    <symbol id="icon-plus" viewBox="0 0 24 24" fill="none" stroke="currentColor" stroke-width="2" stroke-linecap="round" stroke-linejoin="round">
        <line x1="12" y1="5" x2="12" y2="19"/>
        <line x1="5" y1="12" x2="19" y2="12"/>
    </symbol>

    <!-- Volume / Speaker -->
    <symbol id="icon-volume" viewBox="0 0 24 24" fill="none" stroke="currentColor" stroke-width="2" stroke-linecap="round" stroke-linejoin="round">
        <polygon points="11 5 6 9 2 9 2 15 6 15 11 19 11 5"/>
        <path d="M15.54 8.46a5 5 0 0 1 0 7.07"/>
        <path d="M19.07 4.93a10 10 0 0 1 0 14.14"/>
    </symbol>

    <!-- Volume Muted -->
    <symbol id="icon-volume-muted" viewBox="0 0 24 24" fill="none" stroke="currentColor" stroke-width="2" stroke-linecap="round" stroke-linejoin="round">
        <polygon points="11 5 6 9 2 9 2 15 6 15 11 19 11 5"/>
        <line x1="22" y1="9" x2="16" y2="15"/>
        <line x1="16" y1="9" x2="22" y2="15"/>
    </symbol>

    <!-- Lock -->
    <symbol id="icon-lock" viewBox="0 0 24 24" fill="none" stroke="currentColor" stroke-width="2" stroke-linecap="round" stroke-linejoin="round">
        <rect x="3" y="11" width="18" height="11" rx="2" ry="2"/>
        <path d="M7 11V7a5 5 0 0 1 10 0v4"/>
    </symbol>

    <!-- Unlock -->
    <symbol id="icon-unlock" viewBox="0 0 24 24" fill="none" stroke="currentColor" stroke-width="2" stroke-linecap="round" stroke-linejoin="round">
        <rect x="3" y="11" width="18" height="11" rx="2" ry="2"/>
        <path d="M7 11V7a5 5 0 0 1 9.9-1"/>
    </symbol>

    <!-- Eye / Visible -->
    <symbol id="icon-eye" viewBox="0 0 24 24" fill="none" stroke="currentColor" stroke-width="2" stroke-linecap="round" stroke-linejoin="round">
        <path d="M1 12s4-8 11-8 11 8 11 8-4 8-11 8-11-8-11-8z"/>
        <circle cx="12" cy="12" r="3"/>
    </symbol>

    <!-- Eye Off / Hidden -->
    <symbol id="icon-eye-off" viewBox="0 0 24 24" fill="none" stroke="currentColor" stroke-width="2" stroke-linecap="round" stroke-linejoin="round">
        <path d="M17.94 17.94A10.07 10.07 0 0 1 12 20c-7 0-11-8-11-8a18.45 18.45 0 0 1 5.06-5.94M9.9 4.24A9.12 9.12 0 0 1 12 4c7 0 11 8 11 8a18.5 18.5 0 0 1-2.16 3.19m-6.72-1.07a3 3 0 1 1-4.24-4.24"/>
        <line x1="1" y1="1" x2="23" y2="23"/>
    </symbol>

    <!-- Image -->
    <symbol id="icon-image" viewBox="0 0 24 24" fill="none" stroke="currentColor" stroke-width="2" stroke-linecap="round" stroke-linejoin="round">
        <rect x="3" y="3" width="18" height="18" rx="2" ry="2"/>
        <circle cx="8.5" cy="8.5" r="1.5"/>
        <polyline points="21 15 16 10 5 21"/>
    </symbol>

    <!-- Film -->
    <symbol id="icon-film" viewBox="0 0 24 24" fill="none" stroke="currentColor" stroke-width="2" stroke-linecap="round" stroke-linejoin="round">
        <rect x="2" y="2" width="20" height="20" rx="2.18" ry="2.18"/>
        <line x1="7" y1="2" x2="7" y2="22"/>
        <line x1="17" y1="2" x2="17" y2="22"/>
        <line x1="2" y1="12" x2="22" y2="12"/>
        <line x1="2" y1="7" x2="7" y2="7"/>
        <line x1="2" y1="17" x2="7" y2="17"/>
        <line x1="17" y1="17" x2="22" y2="17"/>
        <line x1="17" y1="7" x2="22" y2="7"/>
    </symbol>

    <!-- Close / X -->
    <symbol id="icon-close" viewBox="0 0 24 24" fill="none" stroke="currentColor" stroke-width="2" stroke-linecap="round" stroke-linejoin="round">
        <line x1="18" y1="6" x2="6" y2="18"/>
        <line x1="6" y1="6" x2="18" y2="18"/>
    </symbol>

    <!-- Zoom In -->
    <symbol id="icon-zoom-in" viewBox="0 0 24 24" fill="none" stroke="currentColor" stroke-width="2" stroke-linecap="round" stroke-linejoin="round">
        <circle cx="11" cy="11" r="8"/>
        <line x1="21" y1="21" x2="16.65" y2="16.65"/>
        <line x1="11" y1="8" x2="11" y2="14"/>
        <line x1="8" y1="11" x2="14" y2="11"/>
    </symbol>

    <!-- Zoom Out -->
    <symbol id="icon-zoom-out" viewBox="0 0 24 24" fill="none" stroke="currentColor" stroke-width="2" stroke-linecap="round" stroke-linejoin="round">
        <circle cx="11" cy="11" r="8"/>
        <line x1="21" y1="21" x2="16.65" y2="16.65"/>
        <line x1="8" y1="11" x2="14" y2="11"/>
    </symbol>

    <!-- Settings / Gear -->
    <symbol id="icon-settings" viewBox="0 0 24 24" fill="none" stroke="currentColor" stroke-width="2" stroke-linecap="round" stroke-linejoin="round">
        <circle cx="12" cy="12" r="3"/>
        <path d="M19.4 15a1.65 1.65 0 0 0 .33 1.82l.06.06a2 2 0 0 1 0 2.83 2 2 0 0 1-2.83 0l-.06-.06a1.65 1.65 0 0 0-1.82-.33 1.65 1.65 0 0 0-1 1.51V21a2 2 0 0 1-2 2 2 2 0 0 1-2-2v-.09A1.65 1.65 0 0 0 9 19.4a1.65 1.65 0 0 0-1.82.33l-.06.06a2 2 0 0 1-2.83 0 2 2 0 0 1 0-2.83l.06-.06a1.65 1.65 0 0 0 .33-1.82 1.65 1.65 0 0 0-1.51-1H3a2 2 0 0 1-2-2 2 2 0 0 1 2-2h.09A1.65 1.65 0 0 0 4.6 9a1.65 1.65 0 0 0-.33-1.82l-.06-.06a2 2 0 0 1 0-2.83 2 2 0 0 1 2.83 0l.06.06a1.65 1.65 0 0 0 1.82.33H9a1.65 1.65 0 0 0 1-1.51V3a2 2 0 0 1 2-2 2 2 0 0 1 2 2v.09a1.65 1.65 0 0 0 1 1.51 1.65 1.65 0 0 0 1.82-.33l.06-.06a2 2 0 0 1 2.83 0 2 2 0 0 1 0 2.83l-.06.06a1.65 1.65 0 0 0-.33 1.82V9a1.65 1.65 0 0 0 1.51 1H21a2 2 0 0 1 2 2 2 2 0 0 1-2 2h-.09a1.65 1.65 0 0 0-1.51 1z"/>
    </symbol>

    <!-- Download -->
    <symbol id="icon-download" viewBox="0 0 24 24" fill="none" stroke="currentColor" stroke-width="2" stroke-linecap="round" stroke-linejoin="round">
        <path d="M21 15v4a2 2 0 0 1-2 2H5a2 2 0 0 1-2-2v-4"/>
        <polyline points="7 10 12 15 17 10"/>
        <line x1="12" y1="15" x2="12" y2="3"/>
    </symbol>

    <!-- Waveform / Audio Track -->
    <symbol id="icon-waveform" viewBox="0 0 24 24" fill="none" stroke="currentColor" stroke-width="2" stroke-linecap="round" stroke-linejoin="round">
        <line x1="4" y1="12" x2="4" y2="12"/>
        <line x1="8" y1="8" x2="8" y2="16"/>
        <line x1="12" y1="4" x2="12" y2="20"/>
        <line x1="16" y1="8" x2="16" y2="16"/>
        <line x1="20" y1="12" x2="20" y2="12"/>
    </symbol>

    <!-- Layers -->
    <symbol id="icon-layers" viewBox="0 0 24 24" fill="none" stroke="currentColor" stroke-width="2" stroke-linecap="round" stroke-linejoin="round">
        <polygon points="12 2 2 7 12 12 22 7 12 2"/>
        <polyline points="2 17 12 22 22 17"/>
        <polyline points="2 12 12 17 22 12"/>
    </symbol>

    <!-- Fade In -->
    <symbol id="icon-fade-in" viewBox="0 0 24 24" fill="none" stroke="currentColor" stroke-width="2" stroke-linecap="round" stroke-linejoin="round">
        <path d="M3 17L21 7"/>
        <rect x="3" y="7" width="18" height="10" rx="1"/>
    </symbol>

    <!-- Fade Out -->
    <symbol id="icon-fade-out" viewBox="0 0 24 24" fill="none" stroke="currentColor" stroke-width="2" stroke-linecap="round" stroke-linejoin="round">
        <path d="M3 7L21 17"/>
        <rect x="3" y="7" width="18" height="10" rx="1"/>
    </symbol>

    <!-- Offline -->
    <symbol id="icon-offline" viewBox="0 0 24 24" fill="none" stroke="currentColor" stroke-width="2" stroke-linecap="round" stroke-linejoin="round">
        <line x1="1" y1="1" x2="23" y2="23"/>
        <path d="M16.72 11.06A10.94 10.94 0 0 1 19 12.55"/>
        <path d="M5 12.55a10.94 10.94 0 0 1 5.17-2.39"/>
        <path d="M10.71 5.05A16 16 0 0 1 22.58 9"/>
        <path d="M1.42 9a15.91 15.91 0 0 1 4.7-2.88"/>
        <path d="M8.53 16.11a6 6 0 0 1 6.95 0"/>
        <line x1="12" y1="20" x2="12.01" y2="20"/>
    </symbol>
</svg>
