<svg xmlns="http://www.w3.org/2000/svg" viewBox="0 0 512 512">
  <defs>
    <linearGradient id="grad" x1="0%" y1="0%" x2="100%" y2="100%">
      <stop offset="0%" style="stop-color:#8b5cf6;stop-opacity:1" />
      <stop offset="100%" style="stop-color:#7c3aed;stop-opacity:1" />
    </linearGradient>
  </defs>

  <!-- Background -->
  <rect width="512" height="512" rx="96" fill="url(#grad)"/>

  <!-- Film strip left -->
  <rect x="60" y="120" width="40" height="272" rx="4" fill="#fff" opacity="0.9"/>
  <rect x="68" y="136" width="24" height="20" rx="2" fill="#7c3aed"/>
  <rect x="68" y="172" width="24" height="20" rx="2" fill="#7c3aed"/>
  <rect x="68" y="208" width="24" height="20" rx="2" fill="#7c3aed"/>
  <rect x="68" y="244" width="24" height="20" rx="2" fill="#7c3aed"/>
  <rect x="68" y="280" width="24" height="20" rx="2" fill="#7c3aed"/>
  <rect x="68" y="316" width="24" height="20" rx="2" fill="#7c3aed"/>
  <rect x="68" y="352" width="24" height="20" rx="2" fill="#7c3aed"/>

  <!-- Film strip right -->
  <rect x="412" y="120" width="40" height="272" rx="4" fill="#fff" opacity="0.9"/>
  <rect x="420" y="136" width="24" height="20" rx="2" fill="#7c3aed"/>
  <rect x="420" y="172" width="24" height="20" rx="2" fill="#7c3aed"/>
  <rect x="420" y="208" width="24" height="20" rx="2" fill="#7c3aed"/>
  <rect x="420" y="244" width="24" height="20" rx="2" fill="#7c3aed"/>
  <rect x="420" y="280" width="24" height="20" rx="2" fill="#7c3aed"/>
  <rect x="420" y="316" width="24" height="20" rx="2" fill="#7c3aed"/>
  <rect x="420" y="352" width="24" height="20" rx="2" fill="#7c3aed"/>

  <!-- Center screen -->
  <rect x="120" y="140" width="272" height="180" rx="12" fill="#fff"/>

  <!-- Play button -->
  <polygon points="220,200 220,280 290,240" fill="#8b5cf6"/>

  <!-- Timeline bars -->
  <rect x="120" y="340" width="272" height="12" rx="6" fill="#fff" opacity="0.7"/>
  <rect x="120" y="340" width="180" height="12" rx="6" fill="#fff"/>

  <rect x="120" y="360" width="272" height="8" rx="4" fill="#fff" opacity="0.5"/>
  <rect x="160" y="360" width="100" height="8" rx="4" fill="#fff" opacity="0.8"/>

  <rect x="120" y="376" width="272" height="8" rx="4" fill="#fff" opacity="0.5"/>
  <rect x="200" y="376" width="140" height="8" rx="4" fill="#fff" opacity="0.8"/>
</svg>
