<svg xmlns="http://www.w3.org/2000/svg" viewBox="0 0 512 512">
  <defs>
    <linearGradient id="grad1" x1="0%" y1="0%" x2="100%" y2="100%">
      <stop offset="0%" style="stop-color:#8b5cf6;stop-opacity:1" />
      <stop offset="100%" style="stop-color:#ec4899;stop-opacity:1" />
    </linearGradient>
  </defs>

  <!-- Background -->
  <rect width="512" height="512" rx="100" fill="#0a0a0f"/>

  <!-- 3D Printer Icon -->
  <g transform="translate(96, 80)">
    <!-- Printer body -->
    <rect x="20" y="140" width="280" height="180" rx="20" fill="url(#grad1)" opacity="0.9"/>

    <!-- Top frame -->
    <rect x="40" y="20" width="240" height="20" rx="10" fill="url(#grad1)"/>
    <rect x="40" y="20" width="20" height="140" rx="5" fill="url(#grad1)"/>
    <rect x="260" y="20" width="20" height="140" rx="5" fill="url(#grad1)"/>

    <!-- Print head -->
    <rect x="120" y="60" width="80" height="40" rx="8" fill="#fff" opacity="0.9"/>
    <rect x="145" y="100" width="30" height="30" rx="4" fill="#06b6d4"/>

    <!-- Printed object (cube) -->
    <g transform="translate(130, 180)">
      <polygon points="30,0 60,15 60,55 30,70 0,55 0,15" fill="#10b981" opacity="0.9"/>
      <polygon points="30,0 60,15 30,30 0,15" fill="#34d399"/>
      <polygon points="30,30 60,15 60,55 30,70" fill="#059669"/>
    </g>

    <!-- Build plate -->
    <rect x="60" y="260" width="200" height="20" rx="5" fill="#fff" opacity="0.3"/>
  </g>

  <!-- Calculator symbol -->
  <g transform="translate(340, 340)">
    <circle cx="50" cy="50" r="60" fill="#0a0a0f" stroke="url(#grad1)" stroke-width="6"/>
    <text x="50" y="65" font-family="Arial" font-size="50" font-weight="bold" fill="url(#grad1)" text-anchor="middle">$</text>
  </g>
</svg>
